<svg width="126" height="6" viewBox="0 0 126 6" fill="none" xmlns="http://www.w3.org/2000/svg">
<path d="M0.333333 3C0.333333 4.47276 1.52724 5.66667 3 5.66667C4.47276 5.66667 5.66667 4.47276 5.66667 3C5.66667 1.52724 4.47276 0.333333 3 0.333333C1.52724 0.333333 0.333333 1.52724 0.333333 3ZM120.333 3C120.333 4.47276 121.527 5.66667 123 5.66667C124.473 5.66667 125.667 4.47276 125.667 3C125.667 1.52724 124.473 0.333333 123 0.333333C121.527 0.333333 120.333 1.52724 120.333 3ZM3 3L3 3.5L123 3.5L123 3L123 2.5L3 2.5L3 3Z" fill="#1E1E1E" fill-opacity="0.75"/>
</svg>
