<svg width="156" height="22" viewBox="0 0 156 22" fill="none" xmlns="http://www.w3.org/2000/svg">
<path d="M0.00204631 14.8224C0.00204631 11.4549 2.71897 8.73998 6.08443 8.73998H11.015C14.2045 8.73998 14.2045 3.86671 11.015 3.86671H0V0.204594H11.015C16.1829 0.204594 18.9591 6.25834 15.6816 10.1864C19.9636 13.8485 17.394 20.9354 11.7249 20.9354H0.00204631V14.8224ZM11.7249 17.2733C14.9431 17.2733 14.9431 12.4001 11.7249 12.4001H6.08443C4.72597 12.4001 3.66212 13.4926 3.66212 14.8224V17.2733H11.7229H11.7249Z" fill="#FAFAFA"/>
<path d="M34.5813 17.2733V20.9354H26.9031C23.5356 20.9354 20.79 18.1899 20.79 14.8224V0.235283H24.4522V14.8224C24.4522 16.1808 25.5447 17.2733 26.9031 17.2733H34.5813Z" fill="#FAFAFA"/>
<path d="M55.6048 4.01605C58.6756 3.77873 59.7681 0 65.3206 0C70.8731 0 75.8917 4.72393 75.8917 10.571C75.8917 16.4181 71.137 21.1421 65.3206 21.1421C59.5042 21.1421 58.6756 17.3327 55.6048 17.126C52.5032 17.3327 51.4107 21.1421 45.8889 21.1421C40.0418 21.1421 35.3179 16.3875 35.3179 10.571C35.3179 4.75462 40.0418 0 45.8889 0C51.4107 0 52.5032 3.77873 55.6048 4.01605ZM65.3186 17.48C69.0687 17.48 72.2275 14.3211 72.2275 10.5404C72.2275 6.75957 69.0687 3.66007 65.3186 3.66007C60.7706 3.66007 60.3573 7.79478 55.6027 7.79478C50.8481 7.79478 50.4062 3.66007 45.8869 3.66007C42.1081 3.66007 38.9779 6.76162 38.9779 10.5404C38.9779 14.3191 42.1081 17.48 45.8869 17.48C50.4042 17.48 50.8481 13.3452 55.6027 13.3452C60.3573 13.3452 60.7706 17.48 65.3186 17.48Z" fill="url(#paint0_linear_626_430)"/>
<path d="M78.8418 0.265972H82.5039V14.8837C82.5039 16.4488 82.7392 17.4227 83.7437 17.4227C85.4275 17.4227 86.9332 14.8531 87.6125 13.7319L96.3524 0.265972H100.722L91.9825 13.7319C88.9709 18.3986 86.9926 21.0848 83.0052 21.0848C80.5256 21.0848 78.8418 18.8118 78.8418 14.8837V0.265972Z" fill="#FAFAFA"/>
<path d="M111.028 20.9354C105.328 20.8761 100.723 16.2688 100.723 10.571C100.723 4.87328 105.359 0.206635 111.087 0.206635H118.559V3.86875H111.087C107.396 3.86875 104.385 6.85164 104.385 10.571C104.385 14.2904 107.396 17.2733 111.087 17.2733H118.559V20.9354H111.028ZM108.843 12.4021V8.73998H115.723V12.4021H108.843Z" fill="#FAFAFA"/>
<path d="M145.605 3.86875H126.883C123.665 3.86875 123.665 8.74202 126.883 8.74202H133.675C137.043 8.74202 139.758 11.4589 139.758 14.8244C139.758 18.1899 137.041 20.9375 133.675 20.9375H122.218V17.2754H133.675C136.865 17.2754 136.865 12.4021 133.675 12.4021H126.707C123.43 12.3141 120.772 9.62584 120.772 6.28902C120.772 2.9522 123.518 0.206635 126.885 0.206635H156V3.86875H149.267V20.9375H145.605V3.86875Z" fill="#FAFAFA"/>
<defs>
<linearGradient id="paint0_linear_626_430" x1="35.3179" y1="10.571" x2="75.8917" y2="10.571" gradientUnits="userSpaceOnUse">
<stop stop-color="#8376FF"/>
<stop offset="1" stop-color="#5CF297"/>
</linearGradient>
</defs>
</svg>
