<svg width="411" height="214" viewBox="0 0 411 214" fill="none" xmlns="http://www.w3.org/2000/svg">
<path d="M205.64 40.75C236.68 38.36 247.72 0.160034 303.83 0.160034C359.94 0.160034 410.67 47.91 410.67 107.01C410.67 166.11 362.62 213.85 303.83 213.85C245.04 213.85 236.68 175.35 205.64 173.26C174.3 175.35 163.26 213.85 107.45 213.85C48.3604 213.85 0.610352 165.8 0.610352 107.01C0.610352 48.22 48.3604 0.160034 107.45 0.160034C163.26 0.160034 174.3 38.36 205.64 40.75ZM303.83 176.84C341.73 176.84 373.67 144.91 373.67 106.7C373.67 68.49 341.74 37.16 303.83 37.16C257.87 37.16 253.69 78.94 205.64 78.94C157.59 78.94 153.11 37.16 107.45 37.16C69.2504 37.16 37.6104 68.5 37.6104 106.7C37.6104 144.9 69.2404 176.84 107.45 176.84C153.11 176.84 157.59 135.06 205.64 135.06C253.69 135.06 257.87 176.84 303.83 176.84Z" fill="url(#paint0_linear_68_62)"/>
<defs>
<linearGradient id="paint0_linear_68_62" x1="0.600352" y1="107" x2="410.67" y2="107" gradientUnits="userSpaceOnUse">
<stop stop-color="#8376FF"/>
<stop offset="1" stop-color="#5CF297"/>
</linearGradient>
</defs>
</svg>
